<mxfile host="app.diagrams.net" modified="2025-03-03T04:31:31.981Z" agent="Mozilla/5.0 (Windows NT 10.0; Win64; x64) AppleWebKit/537.36 (KHTML, like Gecko) Chrome/133.0.0.0 Safari/537.36" etag="teMRo3CYlua0VAuK_j0p" version="24.2.5" type="device">
  <diagram id="eoWRdUcyCv5kpP34zjwt" name="Page-1">
    <mxGraphModel dx="1050" dy="522" grid="1" gridSize="10" guides="1" tooltips="1" connect="1" arrows="1" fold="1" page="1" pageScale="1" pageWidth="850" pageHeight="1100" math="0" shadow="0">
      <root>
        <mxCell id="0" />
        <mxCell id="1" parent="0" />
        <mxCell id="1Ljjv2LiJs6uiaU3sj18-1" value="User" style="rounded=0;whiteSpace=wrap;html=1;" vertex="1" parent="1">
          <mxGeometry x="365" y="100" width="120" height="60" as="geometry" />
        </mxCell>
        <mxCell id="1Ljjv2LiJs6uiaU3sj18-3" value="User id" style="ellipse;whiteSpace=wrap;html=1;" vertex="1" parent="1">
          <mxGeometry x="250" y="80" width="70" height="50" as="geometry" />
        </mxCell>
        <mxCell id="1Ljjv2LiJs6uiaU3sj18-4" value="Username" style="ellipse;whiteSpace=wrap;html=1;" vertex="1" parent="1">
          <mxGeometry x="250" y="150" width="70" height="50" as="geometry" />
        </mxCell>
        <mxCell id="1Ljjv2LiJs6uiaU3sj18-5" value="Email" style="ellipse;whiteSpace=wrap;html=1;" vertex="1" parent="1">
          <mxGeometry x="320" y="200" width="70" height="50" as="geometry" />
        </mxCell>
        <mxCell id="1Ljjv2LiJs6uiaU3sj18-6" value="Password" style="ellipse;whiteSpace=wrap;html=1;" vertex="1" parent="1">
          <mxGeometry x="320" y="20" width="70" height="50" as="geometry" />
        </mxCell>
        <mxCell id="1Ljjv2LiJs6uiaU3sj18-7" value="Name" style="ellipse;whiteSpace=wrap;html=1;" vertex="1" parent="1">
          <mxGeometry x="400" y="20" width="70" height="50" as="geometry" />
        </mxCell>
        <mxCell id="1Ljjv2LiJs6uiaU3sj18-9" value="" style="endArrow=none;html=1;rounded=0;entryX=0.5;entryY=1;entryDx=0;entryDy=0;exitX=0.25;exitY=0;exitDx=0;exitDy=0;" edge="1" parent="1" source="1Ljjv2LiJs6uiaU3sj18-1" target="1Ljjv2LiJs6uiaU3sj18-6">
          <mxGeometry width="50" height="50" relative="1" as="geometry">
            <mxPoint x="350" y="140" as="sourcePoint" />
            <mxPoint x="400" y="90" as="targetPoint" />
          </mxGeometry>
        </mxCell>
        <mxCell id="1Ljjv2LiJs6uiaU3sj18-10" value="" style="endArrow=none;html=1;rounded=0;entryX=0.5;entryY=1;entryDx=0;entryDy=0;exitX=0.5;exitY=0;exitDx=0;exitDy=0;" edge="1" parent="1" source="1Ljjv2LiJs6uiaU3sj18-1" target="1Ljjv2LiJs6uiaU3sj18-7">
          <mxGeometry width="50" height="50" relative="1" as="geometry">
            <mxPoint x="405" y="110" as="sourcePoint" />
            <mxPoint x="365" y="80" as="targetPoint" />
          </mxGeometry>
        </mxCell>
        <mxCell id="1Ljjv2LiJs6uiaU3sj18-11" value="" style="endArrow=none;html=1;rounded=0;entryX=1;entryY=0.5;entryDx=0;entryDy=0;exitX=0;exitY=0.25;exitDx=0;exitDy=0;" edge="1" parent="1" source="1Ljjv2LiJs6uiaU3sj18-1" target="1Ljjv2LiJs6uiaU3sj18-3">
          <mxGeometry width="50" height="50" relative="1" as="geometry">
            <mxPoint x="435" y="110" as="sourcePoint" />
            <mxPoint x="445" y="80" as="targetPoint" />
          </mxGeometry>
        </mxCell>
        <mxCell id="1Ljjv2LiJs6uiaU3sj18-12" value="" style="endArrow=none;html=1;rounded=0;entryX=1;entryY=0.5;entryDx=0;entryDy=0;exitX=0;exitY=0.75;exitDx=0;exitDy=0;" edge="1" parent="1" source="1Ljjv2LiJs6uiaU3sj18-1" target="1Ljjv2LiJs6uiaU3sj18-4">
          <mxGeometry width="50" height="50" relative="1" as="geometry">
            <mxPoint x="375" y="125" as="sourcePoint" />
            <mxPoint x="330" y="115" as="targetPoint" />
          </mxGeometry>
        </mxCell>
        <mxCell id="1Ljjv2LiJs6uiaU3sj18-13" value="" style="endArrow=none;html=1;rounded=0;entryX=0.5;entryY=0;entryDx=0;entryDy=0;exitX=0.25;exitY=1;exitDx=0;exitDy=0;" edge="1" parent="1" source="1Ljjv2LiJs6uiaU3sj18-1" target="1Ljjv2LiJs6uiaU3sj18-5">
          <mxGeometry width="50" height="50" relative="1" as="geometry">
            <mxPoint x="375" y="155" as="sourcePoint" />
            <mxPoint x="330" y="185" as="targetPoint" />
          </mxGeometry>
        </mxCell>
      </root>
    </mxGraphModel>
  </diagram>
</mxfile>
